<svg xmlns="http://www.w3.org/2000/svg" width="10.833" height="10.828" viewBox="0 0 10.833 10.828">
  <g id="callout" transform="translate(-298.493 -317.395)">
    <path id="Path_3257" data-name="Path 3257" d="M301.311,325.4c-1.717-1.711-2.818-3.6-2.818-5.209a2.764,2.764,0,0,1,.855-2.08l.059-.058a1.58,1.58,0,0,1,1.09-.516,1.065,1.065,0,0,1,.867.516l1.148,1.687a1.047,1.047,0,0,1-.152,1.459l-.381.4a.384.384,0,0,0-.07.486,5.877,5.877,0,0,0,1.213,1.494,8.77,8.77,0,0,0,1.505,1.225.387.387,0,0,0,.487-.071l.392-.381a1.055,1.055,0,0,1,1.465-.152l1.687,1.149a1.041,1.041,0,0,1,.516.861,1.607,1.607,0,0,1-.516,1.1.528.528,0,0,0-.058.058,2.779,2.779,0,0,1-2.115.856C304.891,328.223,303.01,327.1,301.311,325.4Zm6.949,1.641a.519.519,0,0,0,.047-.053,1.118,1.118,0,0,0,.392-.756.6.6,0,0,0-.31-.509l-1.681-1.137a.629.629,0,0,0-.879.105l-.428.434a.778.778,0,0,1-.967.117,9.183,9.183,0,0,1-1.623-1.353,9.744,9.744,0,0,1-1.342-1.612.778.778,0,0,1,.117-.967l.434-.427a.629.629,0,0,0,.105-.879l-1.136-1.682a.61.61,0,0,0-.516-.31,1.164,1.164,0,0,0-.75.38.25.25,0,0,1-.058.059,2.35,2.35,0,0,0-.715,1.746c-.006,1.494,1.1,3.328,2.672,4.9s3.375,2.666,4.869,2.661A2.389,2.389,0,0,0,308.26,327.045Zm-3.539-5.244a.23.23,0,0,1,.076-.17l2.953-2.953.932-.9-1.793.041h-1.43a.211.211,0,0,1,0-.421H309.1c.146,0,.222.07.222.205v3.6a.2.2,0,0,1-.211.2.208.208,0,0,1-.2-.2v-1.377l.035-1.787-.9.932-2.953,2.959a.221.221,0,0,1-.152.064A.2.2,0,0,1,304.721,321.8Z" fill="#1a1818"/>
  </g>
</svg>
