<svg xmlns="http://www.w3.org/2000/svg" width="10.834" height="10.828" viewBox="0 0 10.834 10.828">
  <g id="callin" transform="translate(-282.944 -317.395)">
    <path id="Path_3256" data-name="Path 3256" d="M285.763,325.4c-1.717-1.711-2.819-3.6-2.819-5.209a2.765,2.765,0,0,1,.856-2.08l.058-.058a1.584,1.584,0,0,1,1.09-.516,1.065,1.065,0,0,1,.867.516l1.149,1.687a1.047,1.047,0,0,1-.152,1.459l-.381.4a.386.386,0,0,0-.071.486,5.877,5.877,0,0,0,1.213,1.494,8.728,8.728,0,0,0,1.506,1.225.386.386,0,0,0,.486-.071l.393-.381a1.055,1.055,0,0,1,1.465-.152l1.687,1.149a1.041,1.041,0,0,1,.516.861,1.607,1.607,0,0,1-.516,1.1.528.528,0,0,0-.058.058,2.779,2.779,0,0,1-2.115.856C289.343,328.223,287.462,327.1,285.763,325.4Zm6.949,1.641a.519.519,0,0,0,.047-.053,1.118,1.118,0,0,0,.392-.756.6.6,0,0,0-.31-.509l-1.682-1.137a.629.629,0,0,0-.879.105l-.427.434a.778.778,0,0,1-.967.117,9.113,9.113,0,0,1-1.623-1.353,9.744,9.744,0,0,1-1.342-1.612.778.778,0,0,1,.117-.967l.434-.427a.629.629,0,0,0,.105-.879l-1.137-1.682a.607.607,0,0,0-.515-.31,1.161,1.161,0,0,0-.75.38.253.253,0,0,1-.059.059,2.354,2.354,0,0,0-.715,1.746c-.005,1.494,1.1,3.328,2.672,4.9s3.375,2.666,4.869,2.661A2.388,2.388,0,0,0,292.712,327.045Zm1.066-9.457a.228.228,0,0,1-.076.17l-2.953,2.953-.932.9,1.787-.041h1.436a.211.211,0,1,1,0,.422H289.4c-.153,0-.223-.07-.223-.2v-3.6a.205.205,0,1,1,.41,0v1.377l-.029,1.787.9-.932,2.953-2.959a.224.224,0,0,1,.153-.064A.2.2,0,0,1,293.778,317.588Z" fill="#1a1818"/>
  </g>
</svg>
