<svg xmlns="http://www.w3.org/2000/svg" width="12.463" height="11.479" viewBox="0 0 12.463 11.479">
  <g id="chat" transform="translate(-267.86 -317.482)">
    <path id="Path_3255" data-name="Path 3255" d="M270.59,328.609v-1.658h-.5a2.068,2.068,0,0,1-2.232-2.232v-5a2.068,2.068,0,0,1,2.232-2.233h8a2.075,2.075,0,0,1,2.233,2.233v5a2.074,2.074,0,0,1-2.233,2.232H273.4l-2.109,1.811a.593.593,0,0,1-.381.2A.315.315,0,0,1,270.59,328.609Zm2.42-1.916a.519.519,0,0,1,.434-.175h4.635a1.685,1.685,0,0,0,1.8-1.811v-4.98a1.684,1.684,0,0,0-1.8-1.811H270.1a1.678,1.678,0,0,0-1.811,1.811v4.98a1.678,1.678,0,0,0,1.811,1.811h.686c.152,0,.21.058.21.211v1.746Zm-1.166-3.814a.57.57,0,0,1-.556-.545.542.542,0,0,1,.556-.557.55.55,0,0,1,.557.557A.562.562,0,0,1,271.844,322.879Zm2.4,0a.57.57,0,0,1-.557-.545.546.546,0,0,1,.557-.557.552.552,0,0,1,.556.557A.565.565,0,0,1,274.247,322.879Zm2.4,0a.57.57,0,0,1-.557-.545.557.557,0,1,1,1.114,0A.562.562,0,0,1,276.649,322.879Z" fill="#1a1818"/>
  </g>
</svg>
