<svg xmlns="http://www.w3.org/2000/svg" width="25.425" height="25.424" viewBox="0 0 25.425 25.424">
  <g id="Group_2447" data-name="Group 2447" transform="translate(0 0)">
    <path id="Path_3209" data-name="Path 3209" d="M697.971,1033.32a12.712,12.712,0,1,1,12.713,12.712A12.8,12.8,0,0,1,697.971,1033.32Zm10.207-2.791a1.4,1.4,0,1,0-1.384,1.608A1.478,1.478,0,0,0,708.178,1030.528Zm7.378,5.92c0-.174-.125-.25-.262-.149a7.412,7.412,0,0,1-4.786,1.557,7.618,7.618,0,0,1-4.786-1.545c-.137-.1-.262-.037-.262.138,0,.823,1.932,3.028,5.048,3.028S715.557,1037.271,715.557,1036.448Zm.112-5.92a1.4,1.4,0,1,0-1.383,1.608A1.478,1.478,0,0,0,715.668,1030.528Z" transform="translate(-697.971 -1020.608)" fill="#3b99fd"/>
  </g>
</svg>
