<svg xmlns="http://www.w3.org/2000/svg" width="78.245" height="76.318" viewBox="0 0 78.245 76.318">
  <g id="issue-icon" transform="translate(-158.623 -760.625)">
    <path id="Path_1899" data-name="Path 1899" d="M931.056,341.636l34.727,20.21,30.088-17.521L960.492,323.2Z" transform="translate(-765.722 475.097)" fill="#e3e4e8"/>
    <path id="Path_1900" data-name="Path 1900" d="M965.784,348.3,931.057,328.1l30.088-17.515,34.732,20.2Z" transform="translate(-765.722 474.039)" fill="#fcfefe" stroke="#383e45" stroke-linecap="round" stroke-linejoin="round" stroke-width="0.75"/>
    <path id="Path_1901" data-name="Path 1901" d="M963.1,354.814V346.74l30.088-17.521v8.074Z" transform="translate(-763.034 475.602)" fill="#fcfefe" stroke="#383e45" stroke-linecap="round" stroke-linejoin="round" stroke-width="0.75"/>
    <path id="Path_1902" data-name="Path 1902" d="M931.057,334.816v-8.074l34.727,20.207v8.074Z" transform="translate(-765.722 475.394)" fill="#fcfefe" stroke="#383e45" stroke-linecap="round" stroke-linejoin="round" stroke-width="0.75"/>
    <path id="Path_1903" data-name="Path 1903" d="M993.19,338.43l3.337-22.761-32.972,19.495L963.1,355.95Z" transform="translate(-763.034 474.465)" fill="#fcfefe" stroke="#383e45" stroke-linecap="round" stroke-linejoin="round" stroke-width="0.75"/>
    <path id="Path_1904" data-name="Path 1904" d="M966,356.154l-34.727-20.206-2.8-22.709,37.982,22.129Z" transform="translate(-765.938 474.262)" fill="#fcfefe" stroke="#383e45" stroke-linecap="round" stroke-linejoin="round" stroke-width="0.75"/>
    <path id="Path_1905" data-name="Path 1905" d="M966.732,333.889l-41.522-24.16,35.971-20.94,41.522,24.152Z" transform="translate(-766.212 472.211)" fill="#fcfefe" stroke="#383e45" stroke-linecap="round" stroke-linejoin="round" stroke-width="0.75"/>
    <path id="Path_1906" data-name="Path 1906" d="M964.974,331.242,925.21,308.109l1.208,6.457a3.5,3.5,0,0,0,1.707,2.55l37.22,22.135a2.76,2.76,0,0,0,2.562,0l31.5-18.7a4.351,4.351,0,0,0,2.12-3.157l1.179-6.07L968.5,331.241A3.5,3.5,0,0,1,964.974,331.242Z" transform="translate(-766.212 473.831)" fill="#fcfefe" stroke="#383e45" stroke-linecap="round" stroke-linejoin="round" stroke-width="0.75"/>
    <path id="Path_1909" data-name="Path 1909" d="M972.629,309.214c.6-.347.434-.9-.19-1.264a2.564,2.564,0,0,0-.7-.276l-17.39-3.4a2.1,2.1,0,0,0-1.432.174c-.341.2-.494.492-.3.826l5.908,10.038a1.3,1.3,0,0,0,.448.412,2.424,2.424,0,0,0,2.195.108Z" transform="translate(-763.921 473.505)" fill="#fff"/>
    <path id="Path_1907" data-name="Path 1907" d="M973.785,309.874,962.3,316.506a4.447,4.447,0,0,1-4.149-.182,2.214,2.214,0,0,1-.834-.781l-5.876-10.036a1.1,1.1,0,0,1,.351-1.51,1.269,1.269,0,0,1,.18-.09,4.143,4.143,0,0,1,2.772-.307l17.407,3.4a4.332,4.332,0,0,1,1.33.476C974.7,308.18,974.955,309.2,973.785,309.874Zm-1.05-.6c.6-.347.434-.9-.19-1.264a2.564,2.564,0,0,0-.7-.276l-17.39-3.4a2.1,2.1,0,0,0-1.432.174c-.341.2-.494.492-.3.826l5.908,10.038a1.3,1.3,0,0,0,.448.412,2.424,2.424,0,0,0,2.195.108Zm-10.383.623a1,1,0,0,1-1.008-.06l-4.659-2.59c-.358-.2-.387-.488-.076-.668a1.2,1.2,0,0,1,1.156.043l4.493,2.688c.341.207.384.419.1.586Zm2.65,1.53a1.646,1.646,0,0,1-1.458-.047c-.432-.253-.467-.63-.089-.848a1.64,1.64,0,0,1,1.466.052C965.341,310.83,965.372,311.217,965,311.431Z" transform="translate(-764.026 473.444)" fill="#f04b48"/>
    <path id="Path_1908" data-name="Path 1908" d="M983.671,336.2l-8.247,4.762V335.03l9.011-5.2Z" transform="translate(-762 475.653)" fill="#fcfefe" stroke="#383e45" stroke-linecap="round" stroke-linejoin="round" stroke-width="0.75"/>
  </g>
</svg>
