<svg xmlns="http://www.w3.org/2000/svg" width="25.425" height="25.424" viewBox="0 0 25.425 25.424">
  <path id="Path_3210" data-name="Path 3210" d="M783.376,1020.608A12.712,12.712,0,1,0,796.1,1033.32,12.8,12.8,0,0,0,783.376,1020.608Zm-3.876,8.325a1.618,1.618,0,1,1-1.384,1.595A1.478,1.478,0,0,1,779.5,1028.933Zm8.5,10.5a7.407,7.407,0,0,0-4.786-1.558,7.619,7.619,0,0,0-4.786,1.546c-.137.1-.262.037-.262-.138,0-.823,1.932-3.028,5.048-3.028s5.048,2.206,5.048,3.028C788.261,1039.456,788.137,1039.531,788,1039.431Zm-1.009-7.3a1.619,1.619,0,1,1,1.383-1.608A1.474,1.474,0,0,1,786.99,1032.136Z" transform="translate(-770.676 -1020.608)" fill="#3b99fd"/>
</svg>
